<mxfile host="Electron" agent="Mozilla/5.0 (Windows NT 10.0; Win64; x64) AppleWebKit/537.36 (KHTML, like Gecko) draw.io/24.7.17 Chrome/128.0.6613.36 Electron/32.0.1 Safari/537.36" version="24.7.17">
  <diagram id="326YfQ6A8uz0iwaCt7I8" name="BPMN ">
    <mxGraphModel dx="1036" dy="1783" grid="1" gridSize="10" guides="1" tooltips="1" connect="1" arrows="1" fold="1" page="1" pageScale="1" pageWidth="827" pageHeight="1169" math="0" shadow="0">
      <root>
        <mxCell id="0" />
        <mxCell id="1" parent="0" />
        <mxCell id="U2e4l5wQemaMT4tLWJ_u-86" value="" style="swimlane;html=1;childLayout=stackLayout;resizeParent=1;resizeParentMax=0;horizontal=1;startSize=20;horizontalStack=0;" parent="1" vertex="1">
          <mxGeometry x="35" y="-820" width="1405" height="460" as="geometry" />
        </mxCell>
        <mxCell id="U2e4l5wQemaMT4tLWJ_u-87" value="Госуслуги" style="swimlane;html=1;startSize=20;horizontal=0;" parent="U2e4l5wQemaMT4tLWJ_u-86" vertex="1">
          <mxGeometry y="20" width="1405" height="440" as="geometry" />
        </mxCell>
        <mxCell id="U2e4l5wQemaMT4tLWJ_u-91" value="Зарегистрирована&#xa;заявка" style="points=[[0.25,0,0],[0.5,0,0],[0.75,0,0],[1,0.25,0],[1,0.5,0],[1,0.75,0],[0.75,1,0],[0.5,1,0],[0.25,1,0],[0,0.75,0],[0,0.5,0],[0,0.25,0]];shape=mxgraph.bpmn.task;whiteSpace=wrap;rectStyle=rounded;size=10;taskMarker=abstract;fontSize=11;" parent="U2e4l5wQemaMT4tLWJ_u-87" vertex="1">
          <mxGeometry x="40" y="160" width="120" height="80" as="geometry" />
        </mxCell>
        <mxCell id="XAbEL5N_eAQft0Cdkliy-7" value="Запрос на проверку заявки" style="points=[[0.25,0,0],[0.5,0,0],[0.75,0,0],[1,0.25,0],[1,0.5,0],[1,0.75,0],[0.75,1,0],[0.5,1,0],[0.25,1,0],[0,0.75,0],[0,0.5,0],[0,0.25,0]];shape=mxgraph.bpmn.task;whiteSpace=wrap;rectStyle=rounded;size=10;taskMarker=abstract;fontSize=11;" parent="U2e4l5wQemaMT4tLWJ_u-87" vertex="1">
          <mxGeometry x="475" y="300" width="120" height="80" as="geometry" />
        </mxCell>
        <mxCell id="XAbEL5N_eAQft0Cdkliy-8" value="Проверка на отсутствие выданных наборов и отсутствие назавершенных заявок" style="points=[[0.25,0,0],[0.5,0,0],[0.75,0,0],[1,0.25,0],[1,0.5,0],[1,0.75,0],[0.75,1,0],[0.5,1,0],[0.25,1,0],[0,0.75,0],[0,0.5,0],[0,0.25,0]];shape=mxgraph.bpmn.task;whiteSpace=wrap;rectStyle=rounded;size=10;taskMarker=abstract;fontSize=11;" parent="U2e4l5wQemaMT4tLWJ_u-87" vertex="1">
          <mxGeometry x="213" y="160" width="120" height="80" as="geometry" />
        </mxCell>
        <mxCell id="XAbEL5N_eAQft0Cdkliy-10" value="" style="edgeStyle=elbowEdgeStyle;fontSize=12;html=1;endArrow=blockThin;endFill=1;rounded=0;exitX=1;exitY=0.5;exitDx=0;exitDy=0;exitPerimeter=0;entryX=0;entryY=0.5;entryDx=0;entryDy=0;entryPerimeter=0;" parent="U2e4l5wQemaMT4tLWJ_u-87" source="U2e4l5wQemaMT4tLWJ_u-91" target="XAbEL5N_eAQft0Cdkliy-8" edge="1">
          <mxGeometry width="160" relative="1" as="geometry">
            <mxPoint x="383" y="110" as="sourcePoint" />
            <mxPoint x="543" y="110" as="targetPoint" />
          </mxGeometry>
        </mxCell>
        <mxCell id="XAbEL5N_eAQft0Cdkliy-38" value="Заявка подтверждена" style="points=[[0.25,0,0],[0.5,0,0],[0.75,0,0],[1,0.25,0],[1,0.5,0],[1,0.75,0],[0.75,1,0],[0.5,1,0],[0.25,1,0],[0,0.75,0],[0,0.5,0],[0,0.25,0]];shape=mxgraph.bpmn.task;whiteSpace=wrap;rectStyle=rounded;size=10;taskMarker=abstract;fontSize=11;" parent="U2e4l5wQemaMT4tLWJ_u-87" vertex="1">
          <mxGeometry x="885" y="310" width="120" height="80" as="geometry" />
        </mxCell>
        <mxCell id="XAbEL5N_eAQft0Cdkliy-39" value="Заявка отклонена" style="points=[[0.25,0,0],[0.5,0,0],[0.75,0,0],[1,0.25,0],[1,0.5,0],[1,0.75,0],[0.75,1,0],[0.5,1,0],[0.25,1,0],[0,0.75,0],[0,0.5,0],[0,0.25,0]];shape=mxgraph.bpmn.task;whiteSpace=wrap;rectStyle=rounded;size=10;taskMarker=abstract;fontSize=11;" parent="U2e4l5wQemaMT4tLWJ_u-87" vertex="1">
          <mxGeometry x="885" y="110" width="120" height="80" as="geometry" />
        </mxCell>
        <mxCell id="XAbEL5N_eAQft0Cdkliy-57" value="" style="edgeStyle=elbowEdgeStyle;fontSize=12;html=1;endArrow=blockThin;endFill=1;rounded=0;exitX=1;exitY=0.5;exitDx=0;exitDy=0;exitPerimeter=0;entryX=0;entryY=0.5;entryDx=0;entryDy=0;entryPerimeter=0;" parent="U2e4l5wQemaMT4tLWJ_u-87" source="XAbEL5N_eAQft0Cdkliy-8" edge="1">
          <mxGeometry width="160" relative="1" as="geometry">
            <mxPoint x="455" y="250" as="sourcePoint" />
            <mxPoint x="415" y="200" as="targetPoint" />
          </mxGeometry>
        </mxCell>
        <mxCell id="XAbEL5N_eAQft0Cdkliy-58" value="Проверка &lt;br&gt;пройдена &lt;br&gt;успешно?" style="text;html=1;align=center;verticalAlign=middle;resizable=0;points=[];autosize=1;strokeColor=none;fillColor=none;" parent="U2e4l5wQemaMT4tLWJ_u-87" vertex="1">
          <mxGeometry x="355" y="130" width="80" height="60" as="geometry" />
        </mxCell>
        <mxCell id="XAbEL5N_eAQft0Cdkliy-62" value="Да" style="text;html=1;align=center;verticalAlign=middle;resizable=0;points=[];autosize=1;strokeColor=none;fillColor=none;" parent="U2e4l5wQemaMT4tLWJ_u-87" vertex="1">
          <mxGeometry x="435" y="340" width="40" height="30" as="geometry" />
        </mxCell>
        <mxCell id="XAbEL5N_eAQft0Cdkliy-63" value="" style="edgeStyle=elbowEdgeStyle;fontSize=12;html=1;endArrow=blockThin;endFill=1;rounded=0;exitX=0.5;exitY=1;exitDx=0;exitDy=0;exitPerimeter=0;" parent="U2e4l5wQemaMT4tLWJ_u-87" source="XAbEL5N_eAQft0Cdkliy-64" target="XAbEL5N_eAQft0Cdkliy-7" edge="1">
          <mxGeometry width="160" relative="1" as="geometry">
            <mxPoint x="465" y="200" as="sourcePoint" />
            <mxPoint x="535" y="250" as="targetPoint" />
            <Array as="points">
              <mxPoint x="440" y="270" />
            </Array>
          </mxGeometry>
        </mxCell>
        <mxCell id="XAbEL5N_eAQft0Cdkliy-64" value="" style="points=[[0.25,0.25,0],[0.5,0,0],[0.75,0.25,0],[1,0.5,0],[0.75,0.75,0],[0.5,1,0],[0.25,0.75,0],[0,0.5,0]];shape=mxgraph.bpmn.gateway2;html=1;verticalLabelPosition=bottom;labelBackgroundColor=#ffffff;verticalAlign=top;align=center;perimeter=rhombusPerimeter;outlineConnect=0;outline=none;symbol=none;gwType=exclusive;" parent="U2e4l5wQemaMT4tLWJ_u-87" vertex="1">
          <mxGeometry x="415" y="175" width="50" height="50" as="geometry" />
        </mxCell>
        <mxCell id="XAbEL5N_eAQft0Cdkliy-65" value="" style="points=[[0.25,0.25,0],[0.5,0,0],[0.75,0.25,0],[1,0.5,0],[0.75,0.75,0],[0.5,1,0],[0.25,0.75,0],[0,0.5,0]];shape=mxgraph.bpmn.gateway2;html=1;verticalLabelPosition=bottom;labelBackgroundColor=#ffffff;verticalAlign=top;align=center;perimeter=rhombusPerimeter;outlineConnect=0;outline=none;symbol=none;gwType=exclusive;" parent="U2e4l5wQemaMT4tLWJ_u-87" vertex="1">
          <mxGeometry x="715" y="225" width="55" height="50" as="geometry" />
        </mxCell>
        <mxCell id="XAbEL5N_eAQft0Cdkliy-67" value="Проверка &lt;br&gt;пройдена &lt;br&gt;успешно?" style="text;html=1;align=center;verticalAlign=middle;resizable=0;points=[];autosize=1;strokeColor=none;fillColor=none;" parent="U2e4l5wQemaMT4tLWJ_u-87" vertex="1">
          <mxGeometry x="660" y="180" width="80" height="60" as="geometry" />
        </mxCell>
        <mxCell id="XAbEL5N_eAQft0Cdkliy-69" value="Да" style="text;html=1;align=center;verticalAlign=middle;resizable=0;points=[];autosize=1;strokeColor=none;fillColor=none;" parent="U2e4l5wQemaMT4tLWJ_u-87" vertex="1">
          <mxGeometry x="835" y="360" width="40" height="30" as="geometry" />
        </mxCell>
        <mxCell id="XAbEL5N_eAQft0Cdkliy-71" value="Нет" style="text;html=1;align=center;verticalAlign=middle;resizable=0;points=[];autosize=1;strokeColor=none;fillColor=none;" parent="U2e4l5wQemaMT4tLWJ_u-87" vertex="1">
          <mxGeometry x="835" y="113" width="40" height="30" as="geometry" />
        </mxCell>
        <mxCell id="XAbEL5N_eAQft0Cdkliy-68" value="" style="edgeStyle=elbowEdgeStyle;fontSize=12;html=1;endArrow=blockThin;endFill=1;rounded=0;exitX=0.5;exitY=1;exitDx=0;exitDy=0;exitPerimeter=0;entryX=0;entryY=0.5;entryDx=0;entryDy=0;entryPerimeter=0;" parent="U2e4l5wQemaMT4tLWJ_u-87" source="XAbEL5N_eAQft0Cdkliy-65" target="XAbEL5N_eAQft0Cdkliy-38" edge="1">
          <mxGeometry width="160" relative="1" as="geometry">
            <mxPoint x="745" y="280" as="sourcePoint" />
            <mxPoint x="873.75" y="352.5" as="targetPoint" />
            <Array as="points">
              <mxPoint x="743" y="340" />
            </Array>
          </mxGeometry>
        </mxCell>
        <mxCell id="XAbEL5N_eAQft0Cdkliy-60" value="" style="edgeStyle=elbowEdgeStyle;fontSize=12;html=1;endArrow=blockThin;endFill=1;rounded=0;elbow=vertical;exitX=0.5;exitY=0;exitDx=0;exitDy=0;exitPerimeter=0;entryX=0;entryY=0.5;entryDx=0;entryDy=0;entryPerimeter=0;" parent="U2e4l5wQemaMT4tLWJ_u-87" source="XAbEL5N_eAQft0Cdkliy-64" edge="1">
          <mxGeometry width="160" relative="1" as="geometry">
            <mxPoint x="455" y="190" as="sourcePoint" />
            <mxPoint x="475" y="60" as="targetPoint" />
            <Array as="points">
              <mxPoint x="455" y="60" />
            </Array>
          </mxGeometry>
        </mxCell>
        <mxCell id="g8gk2cHHN9IYYNhlEwUN-1" value="" style="endArrow=classic;html=1;rounded=0;entryX=0;entryY=0.5;entryDx=0;entryDy=0;entryPerimeter=0;exitX=0.5;exitY=0;exitDx=0;exitDy=0;exitPerimeter=0;" parent="U2e4l5wQemaMT4tLWJ_u-87" source="XAbEL5N_eAQft0Cdkliy-65" target="XAbEL5N_eAQft0Cdkliy-39" edge="1">
          <mxGeometry width="50" height="50" relative="1" as="geometry">
            <mxPoint x="335" y="380" as="sourcePoint" />
            <mxPoint x="385" y="330" as="targetPoint" />
            <Array as="points">
              <mxPoint x="743" y="150" />
            </Array>
          </mxGeometry>
        </mxCell>
        <mxCell id="XAbEL5N_eAQft0Cdkliy-61" value="Нет" style="text;html=1;align=center;verticalAlign=middle;resizable=0;points=[];autosize=1;strokeColor=none;fillColor=none;" parent="U2e4l5wQemaMT4tLWJ_u-87" vertex="1">
          <mxGeometry x="435" y="27.5" width="40" height="30" as="geometry" />
        </mxCell>
        <mxCell id="WZwL7L6QOMu7g649n0Z5-5" value="" style="points=[[0.145,0.145,0],[0.5,0,0],[0.855,0.145,0],[1,0.5,0],[0.855,0.855,0],[0.5,1,0],[0.145,0.855,0],[0,0.5,0]];shape=mxgraph.bpmn.event;html=1;verticalLabelPosition=bottom;labelBackgroundColor=#ffffff;verticalAlign=top;align=center;perimeter=ellipsePerimeter;outlineConnect=0;aspect=fixed;outline=end;symbol=cancel;" parent="U2e4l5wQemaMT4tLWJ_u-87" vertex="1">
          <mxGeometry x="475" y="20" width="85" height="85" as="geometry" />
        </mxCell>
        <mxCell id="WZwL7L6QOMu7g649n0Z5-6" value="&lt;div style=&quot;text-align: center;&quot;&gt;&lt;span style=&quot;background-color: initial;&quot;&gt;Заявка&amp;nbsp;&lt;/span&gt;&lt;span style=&quot;background-color: initial; text-align: left;&quot;&gt;отклонена&lt;/span&gt;&lt;/div&gt;" style="text;whiteSpace=wrap;html=1;" parent="U2e4l5wQemaMT4tLWJ_u-87" vertex="1">
          <mxGeometry x="465" y="-7.5" width="110" height="27.5" as="geometry" />
        </mxCell>
        <mxCell id="U2e4l5wQemaMT4tLWJ_u-122" value="Пользователь" style="swimlane;html=1;startSize=20;horizontal=0;" parent="1" vertex="1">
          <mxGeometry x="35" y="-1040" width="1405" height="220" as="geometry" />
        </mxCell>
        <mxCell id="xP9QVQVK2zDKNLf7jqm--76" value="Создает заявку" style="points=[[0.25,0,0],[0.5,0,0],[0.75,0,0],[1,0.25,0],[1,0.5,0],[1,0.75,0],[0.75,1,0],[0.5,1,0],[0.25,1,0],[0,0.75,0],[0,0.5,0],[0,0.25,0]];shape=mxgraph.bpmn.task;whiteSpace=wrap;rectStyle=rounded;size=10;taskMarker=abstract;fontSize=11;" parent="U2e4l5wQemaMT4tLWJ_u-122" vertex="1">
          <mxGeometry x="40" y="79" width="120" height="80" as="geometry" />
        </mxCell>
        <mxCell id="XAbEL5N_eAQft0Cdkliy-54" value="" style="edgeStyle=elbowEdgeStyle;fontSize=12;html=1;endArrow=blockThin;endFill=1;rounded=0;exitX=1;exitY=0.5;exitDx=0;exitDy=0;exitPerimeter=0;entryX=0;entryY=0.5;entryDx=0;entryDy=0;entryPerimeter=0;" parent="U2e4l5wQemaMT4tLWJ_u-122" source="xP9QVQVK2zDKNLf7jqm--76" edge="1" target="WZwL7L6QOMu7g649n0Z5-1">
          <mxGeometry width="160" relative="1" as="geometry">
            <mxPoint x="174.56000000000006" y="121.04" as="sourcePoint" />
            <mxPoint x="1135.6" y="118.84000000000003" as="targetPoint" />
            <Array as="points">
              <mxPoint x="945" y="125" />
              <mxPoint x="755" y="125" />
            </Array>
          </mxGeometry>
        </mxCell>
        <mxCell id="WZwL7L6QOMu7g649n0Z5-1" value="" style="points=[[0.145,0.145,0],[0.5,0,0],[0.855,0.145,0],[1,0.5,0],[0.855,0.855,0],[0.5,1,0],[0.145,0.855,0],[0,0.5,0]];shape=mxgraph.bpmn.event;html=1;verticalLabelPosition=bottom;labelBackgroundColor=#ffffff;verticalAlign=top;align=center;perimeter=ellipsePerimeter;outlineConnect=0;aspect=fixed;outline=end;symbol=terminate2;" parent="U2e4l5wQemaMT4tLWJ_u-122" vertex="1">
          <mxGeometry x="1208.63" y="69" width="100" height="100" as="geometry" />
        </mxCell>
        <mxCell id="WZwL7L6QOMu7g649n0Z5-2" value="Получил набор" style="text;whiteSpace=wrap;html=1;" parent="U2e4l5wQemaMT4tLWJ_u-122" vertex="1">
          <mxGeometry x="1214.13" y="99" width="89" height="40" as="geometry" />
        </mxCell>
        <mxCell id="U2e4l5wQemaMT4tLWJ_u-109" value="Склад" style="swimlane;html=1;startSize=20;horizontal=0;" parent="1" vertex="1">
          <mxGeometry x="35" y="-230" width="1405" height="280" as="geometry" />
        </mxCell>
        <mxCell id="XAbEL5N_eAQft0Cdkliy-43" value="Формирование посылки" style="points=[[0.25,0,0],[0.5,0,0],[0.75,0,0],[1,0.25,0],[1,0.5,0],[1,0.75,0],[0.75,1,0],[0.5,1,0],[0.25,1,0],[0,0.75,0],[0,0.5,0],[0,0.25,0]];shape=mxgraph.bpmn.task;whiteSpace=wrap;rectStyle=rounded;size=10;taskMarker=abstract;fontSize=11;" parent="U2e4l5wQemaMT4tLWJ_u-109" vertex="1">
          <mxGeometry x="885" y="50" width="120" height="80" as="geometry" />
        </mxCell>
        <mxCell id="XAbEL5N_eAQft0Cdkliy-44" value="Посылка собрана и отправлена в доставку" style="points=[[0.25,0,0],[0.5,0,0],[0.75,0,0],[1,0.25,0],[1,0.5,0],[1,0.75,0],[0.75,1,0],[0.5,1,0],[0.25,1,0],[0,0.75,0],[0,0.5,0],[0,0.25,0]];shape=mxgraph.bpmn.task;whiteSpace=wrap;rectStyle=rounded;size=10;taskMarker=abstract;fontSize=11;" parent="U2e4l5wQemaMT4tLWJ_u-109" vertex="1">
          <mxGeometry x="1057" y="50" width="120" height="80" as="geometry" />
        </mxCell>
        <mxCell id="XAbEL5N_eAQft0Cdkliy-46" value="" style="edgeStyle=elbowEdgeStyle;fontSize=12;html=1;endArrow=blockThin;endFill=1;rounded=0;exitX=1;exitY=0.5;exitDx=0;exitDy=0;exitPerimeter=0;entryX=0;entryY=0.5;entryDx=0;entryDy=0;entryPerimeter=0;" parent="U2e4l5wQemaMT4tLWJ_u-109" source="XAbEL5N_eAQft0Cdkliy-43" target="XAbEL5N_eAQft0Cdkliy-44" edge="1">
          <mxGeometry width="160" relative="1" as="geometry">
            <mxPoint x="667" y="180" as="sourcePoint" />
            <mxPoint x="827" y="180" as="targetPoint" />
          </mxGeometry>
        </mxCell>
        <mxCell id="xP9QVQVK2zDKNLf7jqm--77" value="Почта России" style="swimlane;html=1;startSize=20;horizontal=0;" parent="1" vertex="1">
          <mxGeometry x="35" y="50" width="1405" height="320" as="geometry" />
        </mxCell>
        <mxCell id="XAbEL5N_eAQft0Cdkliy-51" value="Доставка набора" style="points=[[0.25,0,0],[0.5,0,0],[0.75,0,0],[1,0.25,0],[1,0.5,0],[1,0.75,0],[0.75,1,0],[0.5,1,0],[0.25,1,0],[0,0.75,0],[0,0.5,0],[0,0.25,0]];shape=mxgraph.bpmn.task;whiteSpace=wrap;rectStyle=rounded;size=10;taskMarker=abstract;fontSize=11;" parent="xP9QVQVK2zDKNLf7jqm--77" vertex="1">
          <mxGeometry x="1024.5" y="20" width="185" height="80" as="geometry" />
        </mxCell>
        <mxCell id="xP9QVQVK2zDKNLf7jqm--91" value="Проверка МВД" style="swimlane;html=1;startSize=20;horizontal=0;" parent="1" vertex="1">
          <mxGeometry x="35" y="-360" width="1405" height="130" as="geometry" />
        </mxCell>
        <mxCell id="xP9QVQVK2zDKNLf7jqm--102" value="Проверка заявки" style="points=[[0.25,0,0],[0.5,0,0],[0.75,0,0],[1,0.25,0],[1,0.5,0],[1,0.75,0],[0.75,1,0],[0.5,1,0],[0.25,1,0],[0,0.75,0],[0,0.5,0],[0,0.25,0]];shape=mxgraph.bpmn.task;whiteSpace=wrap;rectStyle=rounded;size=10;taskMarker=abstract;fontSize=11;" parent="xP9QVQVK2zDKNLf7jqm--91" vertex="1">
          <mxGeometry x="510" y="20" width="130" height="80" as="geometry" />
        </mxCell>
        <mxCell id="xP9QVQVK2zDKNLf7jqm--105" value="" style="dashed=1;dashPattern=8 4;endArrow=blockThin;endFill=1;startArrow=oval;startFill=0;endSize=6;startSize=4;html=1;rounded=0;entryX=0.5;entryY=0;entryDx=0;entryDy=0;entryPerimeter=0;exitX=0.5;exitY=1;exitDx=0;exitDy=0;exitPerimeter=0;" parent="1" source="xP9QVQVK2zDKNLf7jqm--76" target="U2e4l5wQemaMT4tLWJ_u-91" edge="1">
          <mxGeometry width="160" relative="1" as="geometry">
            <mxPoint x="130" y="-880" as="sourcePoint" />
            <mxPoint x="131" y="-650" as="targetPoint" />
          </mxGeometry>
        </mxCell>
        <mxCell id="XAbEL5N_eAQft0Cdkliy-5" value="" style="dashed=1;dashPattern=8 4;endArrow=blockThin;endFill=1;startArrow=oval;startFill=0;endSize=6;startSize=4;html=1;rounded=0;" parent="1" edge="1">
          <mxGeometry width="160" relative="1" as="geometry">
            <mxPoint x="570" y="-420" as="sourcePoint" />
            <mxPoint x="570" y="-340" as="targetPoint" />
          </mxGeometry>
        </mxCell>
        <mxCell id="XAbEL5N_eAQft0Cdkliy-42" value="" style="dashed=1;dashPattern=8 4;endArrow=blockThin;endFill=1;startArrow=oval;startFill=0;endSize=6;startSize=4;html=1;rounded=0;entryX=0.5;entryY=0;entryDx=0;entryDy=0;entryPerimeter=0;" parent="1" source="XAbEL5N_eAQft0Cdkliy-38" target="XAbEL5N_eAQft0Cdkliy-43" edge="1">
          <mxGeometry width="160" relative="1" as="geometry">
            <mxPoint x="699.3599999999999" y="-418.96000000000004" as="sourcePoint" />
            <mxPoint x="699" y="-180" as="targetPoint" />
          </mxGeometry>
        </mxCell>
        <mxCell id="XAbEL5N_eAQft0Cdkliy-52" value="" style="dashed=1;dashPattern=8 4;endArrow=blockThin;endFill=1;startArrow=oval;startFill=0;endSize=6;startSize=4;html=1;rounded=0;exitX=0.5;exitY=1;exitDx=0;exitDy=0;exitPerimeter=0;entryX=0.5;entryY=0;entryDx=0;entryDy=0;entryPerimeter=0;" parent="1" source="XAbEL5N_eAQft0Cdkliy-44" target="XAbEL5N_eAQft0Cdkliy-51" edge="1">
          <mxGeometry width="160" relative="1" as="geometry">
            <mxPoint x="980" y="50" as="sourcePoint" />
            <mxPoint x="1140" y="50" as="targetPoint" />
          </mxGeometry>
        </mxCell>
        <mxCell id="XAbEL5N_eAQft0Cdkliy-55" value="" style="dashed=1;dashPattern=8 4;endArrow=blockThin;endFill=1;startArrow=oval;startFill=0;endSize=6;startSize=4;html=1;rounded=0;exitX=0.997;exitY=0.64;exitDx=0;exitDy=0;exitPerimeter=0;" parent="1" edge="1" source="XAbEL5N_eAQft0Cdkliy-51">
          <mxGeometry width="160" relative="1" as="geometry">
            <mxPoint x="1230" y="70" as="sourcePoint" />
            <mxPoint x="1300" y="-870" as="targetPoint" />
            <Array as="points">
              <mxPoint x="1300" y="120" />
            </Array>
          </mxGeometry>
        </mxCell>
        <mxCell id="XAbEL5N_eAQft0Cdkliy-66" value="" style="dashed=1;dashPattern=8 4;endArrow=blockThin;endFill=1;startArrow=oval;startFill=0;endSize=6;startSize=4;html=1;rounded=0;entryX=0;entryY=0.5;entryDx=0;entryDy=0;entryPerimeter=0;exitX=1;exitY=0.75;exitDx=0;exitDy=0;exitPerimeter=0;" parent="1" source="xP9QVQVK2zDKNLf7jqm--102" target="XAbEL5N_eAQft0Cdkliy-65" edge="1">
          <mxGeometry width="160" relative="1" as="geometry">
            <mxPoint x="700" y="-280" as="sourcePoint" />
            <mxPoint x="753" y="-540" as="targetPoint" />
            <Array as="points">
              <mxPoint x="720" y="-280" />
              <mxPoint x="720" y="-550" />
            </Array>
          </mxGeometry>
        </mxCell>
      </root>
    </mxGraphModel>
  </diagram>
</mxfile>
